<mxfile host="app.diagrams.net" agent="Mozilla/5.0 (Macintosh; Intel Mac OS X 10_15_7) AppleWebKit/537.36 (KHTML, like Gecko) Chrome/134.0.0.0 Safari/537.36" version="26.1.1">
  <diagram name="Solutions Architecture" id="architecture">
    <mxGraphModel dx="1592" dy="975" grid="1" gridSize="10" guides="1" tooltips="1" connect="1" arrows="1" fold="1" page="1" pageScale="1" pageWidth="827" pageHeight="1169" math="0" shadow="0">
      <root>
        <mxCell id="0" />
        <mxCell id="1" parent="0" />
        <mxCell id="JmBNsENpprbkLAOKFmlX-129" value="Monitoring Layer" style="rounded=0;whiteSpace=wrap;html=1;fillColor=none;labelPosition=center;verticalLabelPosition=top;align=center;verticalAlign=bottom;fontStyle=1;fontSize=18;dashed=1;dashPattern=8 8;" vertex="1" parent="1">
          <mxGeometry x="800" y="670" width="160" height="140" as="geometry" />
        </mxCell>
        <mxCell id="JmBNsENpprbkLAOKFmlX-123" value="API Layer" style="rounded=0;whiteSpace=wrap;html=1;fillColor=none;labelPosition=center;verticalLabelPosition=top;align=center;verticalAlign=bottom;fontStyle=1;fontSize=18;dashed=1;dashPattern=8 8;" vertex="1" parent="1">
          <mxGeometry x="440" y="850" width="140" height="140" as="geometry" />
        </mxCell>
        <mxCell id="JmBNsENpprbkLAOKFmlX-121" value="Frontend Layer" style="rounded=0;whiteSpace=wrap;html=1;fillColor=none;labelPosition=center;verticalLabelPosition=top;align=center;verticalAlign=bottom;fontStyle=1;fontSize=18;dashed=1;dashPattern=8 8;" vertex="1" parent="1">
          <mxGeometry x="180" y="850" width="220" height="140" as="geometry" />
        </mxCell>
        <mxCell id="JmBNsENpprbkLAOKFmlX-128" value="Security Layer" style="rounded=0;whiteSpace=wrap;html=1;fillColor=none;labelPosition=center;verticalLabelPosition=top;align=center;verticalAlign=bottom;fontStyle=1;fontSize=18;dashed=1;dashPattern=8 8;" vertex="1" parent="1">
          <mxGeometry x="440" y="670" width="290" height="140" as="geometry" />
        </mxCell>
        <mxCell id="JmBNsENpprbkLAOKFmlX-124" value="Compute Layer" style="rounded=0;whiteSpace=wrap;html=1;fillColor=none;labelPosition=center;verticalLabelPosition=top;align=center;verticalAlign=bottom;fontStyle=1;fontSize=18;dashed=1;dashPattern=8 8;" vertex="1" parent="1">
          <mxGeometry x="622" y="850" width="140" height="530" as="geometry" />
        </mxCell>
        <mxCell id="JmBNsENpprbkLAOKFmlX-125" value="Data Layer" style="rounded=0;whiteSpace=wrap;html=1;fillColor=none;labelPosition=center;verticalLabelPosition=top;align=center;verticalAlign=bottom;fontStyle=1;fontSize=18;dashed=1;dashPattern=8 8;" vertex="1" parent="1">
          <mxGeometry x="820" y="850" width="140" height="450" as="geometry" />
        </mxCell>
        <mxCell id="JmBNsENpprbkLAOKFmlX-82" value="CloudFront&#xa;CDN" style="sketch=0;points=[[0,0,0],[0.25,0,0],[0.5,0,0],[0.75,0,0],[1,0,0],[0,1,0],[0.25,1,0],[0.5,1,0],[0.75,1,0],[1,1,0],[0,0.25,0],[0,0.5,0],[0,0.75,0],[1,0.25,0],[1,0.5,0],[1,0.75,0]];outlineConnect=0;fontColor=#232F3E;gradientColor=#945DF2;gradientDirection=north;fillColor=#5A30B5;strokeColor=#ffffff;dashed=0;verticalLabelPosition=bottom;verticalAlign=top;align=center;html=1;fontSize=12;fontStyle=0;aspect=fixed;shape=mxgraph.aws4.resourceIcon;resIcon=mxgraph.aws4.cloudfront;" vertex="1" parent="1">
          <mxGeometry x="204" y="874" width="60" height="60" as="geometry" />
        </mxCell>
        <mxCell id="JmBNsENpprbkLAOKFmlX-83" style="edgeStyle=orthogonalEdgeStyle;rounded=0;orthogonalLoop=1;jettySize=auto;html=1;" edge="1" parent="1" source="JmBNsENpprbkLAOKFmlX-84" target="JmBNsENpprbkLAOKFmlX-85">
          <mxGeometry relative="1" as="geometry" />
        </mxCell>
        <mxCell id="JmBNsENpprbkLAOKFmlX-84" value="S3&#xa;Frontend" style="sketch=0;points=[[0,0,0],[0.25,0,0],[0.5,0,0],[0.75,0,0],[1,0,0],[0,1,0],[0.25,1,0],[0.5,1,0],[0.75,1,0],[1,1,0],[0,0.25,0],[0,0.5,0],[0,0.75,0],[1,0.25,0],[1,0.5,0],[1,0.75,0]];outlineConnect=0;fontColor=#232F3E;gradientColor=#60A337;gradientDirection=north;fillColor=#277116;strokeColor=#ffffff;dashed=0;verticalLabelPosition=bottom;verticalAlign=top;align=center;html=1;fontSize=12;fontStyle=0;aspect=fixed;shape=mxgraph.aws4.resourceIcon;resIcon=mxgraph.aws4.s3;" vertex="1" parent="1">
          <mxGeometry x="320" y="874" width="60" height="60" as="geometry" />
        </mxCell>
        <mxCell id="JmBNsENpprbkLAOKFmlX-85" value="API Gateway&#xa;HTTP API" style="sketch=0;points=[[0,0,0],[0.25,0,0],[0.5,0,0],[0.75,0,0],[1,0,0],[0,1,0],[0.25,1,0],[0.5,1,0],[0.75,1,0],[1,1,0],[0,0.25,0],[0,0.5,0],[0,0.75,0],[1,0.25,0],[1,0.5,0],[1,0.75,0]];outlineConnect=0;fontColor=#232F3E;gradientColor=#FF4F8B;gradientDirection=north;fillColor=#BC1356;strokeColor=#ffffff;dashed=0;verticalLabelPosition=bottom;verticalAlign=top;align=center;html=1;fontSize=12;fontStyle=0;aspect=fixed;shape=mxgraph.aws4.resourceIcon;resIcon=mxgraph.aws4.api_gateway;" vertex="1" parent="1">
          <mxGeometry x="480" y="874" width="60" height="60" as="geometry" />
        </mxCell>
        <mxCell id="JmBNsENpprbkLAOKFmlX-87" value="Create Transactions&amp;nbsp;&lt;div&gt;&lt;br/&gt;&lt;/div&gt;" style="sketch=0;points=[[0,0,0],[0.25,0,0],[0.5,0,0],[0.75,0,0],[1,0,0],[0,1,0],[0.25,1,0],[0.5,1,0],[0.75,1,0],[1,1,0],[0,0.25,0],[0,0.5,0],[0,0.75,0],[1,0.25,0],[1,0.5,0],[1,0.75,0]];outlineConnect=0;fontColor=#232F3E;gradientColor=#F78E04;gradientDirection=north;fillColor=#D05C17;strokeColor=#ffffff;dashed=0;verticalLabelPosition=bottom;verticalAlign=top;align=center;html=1;fontSize=12;fontStyle=0;aspect=fixed;shape=mxgraph.aws4.resourceIcon;resIcon=mxgraph.aws4.lambda;" vertex="1" parent="1">
          <mxGeometry x="662" y="874" width="60" height="60" as="geometry" />
        </mxCell>
        <mxCell id="JmBNsENpprbkLAOKFmlX-88" value="Create/Update Profile" style="sketch=0;points=[[0,0,0],[0.25,0,0],[0.5,0,0],[0.75,0,0],[1,0,0],[0,1,0],[0.25,1,0],[0.5,1,0],[0.75,1,0],[1,1,0],[0,0.25,0],[0,0.5,0],[0,0.75,0],[1,0.25,0],[1,0.5,0],[1,0.75,0]];outlineConnect=0;fontColor=#232F3E;gradientColor=#F78E04;gradientDirection=north;fillColor=#D05C17;strokeColor=#ffffff;dashed=0;verticalLabelPosition=bottom;verticalAlign=top;align=center;html=1;fontSize=12;fontStyle=0;aspect=fixed;shape=mxgraph.aws4.resourceIcon;resIcon=mxgraph.aws4.lambda;" vertex="1" parent="1">
          <mxGeometry x="662" y="1080" width="60" height="60" as="geometry" />
        </mxCell>
        <mxCell id="JmBNsENpprbkLAOKFmlX-89" value="Transactions Table" style="sketch=0;points=[[0,0,0],[0.25,0,0],[0.5,0,0],[0.75,0,0],[1,0,0],[0,1,0],[0.25,1,0],[0.5,1,0],[0.75,1,0],[1,1,0],[0,0.25,0],[0,0.5,0],[0,0.75,0],[1,0.25,0],[1,0.5,0],[1,0.75,0]];outlineConnect=0;fontColor=#232F3E;gradientColor=#4D72F3;gradientDirection=north;fillColor=#3334B9;strokeColor=#ffffff;dashed=0;verticalLabelPosition=bottom;verticalAlign=top;align=center;html=1;fontSize=12;fontStyle=0;aspect=fixed;shape=mxgraph.aws4.resourceIcon;resIcon=mxgraph.aws4.dynamodb;" vertex="1" parent="1">
          <mxGeometry x="860" y="874" width="60" height="60" as="geometry" />
        </mxCell>
        <mxCell id="JmBNsENpprbkLAOKFmlX-90" value="User Settings Table" style="sketch=0;points=[[0,0,0],[0.25,0,0],[0.5,0,0],[0.75,0,0],[1,0,0],[0,1,0],[0.25,1,0],[0.5,1,0],[0.75,1,0],[1,1,0],[0,0.25,0],[0,0.5,0],[0,0.75,0],[1,0.25,0],[1,0.5,0],[1,0.75,0]];outlineConnect=0;fontColor=#232F3E;gradientColor=#4D72F3;gradientDirection=north;fillColor=#3334B9;strokeColor=#ffffff;dashed=0;verticalLabelPosition=bottom;verticalAlign=top;align=center;html=1;fontSize=12;fontStyle=0;aspect=fixed;shape=mxgraph.aws4.resourceIcon;resIcon=mxgraph.aws4.dynamodb;" vertex="1" parent="1">
          <mxGeometry x="860" y="1080" width="60" height="60" as="geometry" />
        </mxCell>
        <mxCell id="JmBNsENpprbkLAOKFmlX-108" style="edgeStyle=orthogonalEdgeStyle;rounded=0;orthogonalLoop=1;jettySize=auto;html=1;" edge="1" parent="1" source="JmBNsENpprbkLAOKFmlX-91" target="JmBNsENpprbkLAOKFmlX-85">
          <mxGeometry relative="1" as="geometry" />
        </mxCell>
        <mxCell id="JmBNsENpprbkLAOKFmlX-91" value="Cognito&#xa;User Pool" style="sketch=0;points=[[0,0,0],[0.25,0,0],[0.5,0,0],[0.75,0,0],[1,0,0],[0,1,0],[0.25,1,0],[0.5,1,0],[0.75,1,0],[1,1,0],[0,0.25,0],[0,0.5,0],[0,0.75,0],[1,0.25,0],[1,0.5,0],[1,0.75,0]];outlineConnect=0;fontColor=#232F3E;gradientColor=#F54749;gradientDirection=north;fillColor=#C7131F;strokeColor=#ffffff;dashed=0;verticalLabelPosition=top;verticalAlign=bottom;align=center;html=1;fontSize=12;fontStyle=0;aspect=fixed;shape=mxgraph.aws4.resourceIcon;resIcon=mxgraph.aws4.cognito;labelPosition=center;" vertex="1" parent="1">
          <mxGeometry x="479" y="720" width="60" height="60" as="geometry" />
        </mxCell>
        <mxCell id="JmBNsENpprbkLAOKFmlX-92" value="CloudWatch&#xa;Logs &amp; Metrics" style="sketch=0;points=[[0,0,0],[0.25,0,0],[0.5,0,0],[0.75,0,0],[1,0,0],[0,1,0],[0.25,1,0],[0.5,1,0],[0.75,1,0],[1,1,0],[0,0.25,0],[0,0.5,0],[0,0.75,0],[1,0.25,0],[1,0.5,0],[1,0.75,0]];outlineConnect=0;fontColor=#232F3E;gradientColor=#F34482;gradientDirection=north;fillColor=#BC1356;strokeColor=#ffffff;dashed=0;verticalLabelPosition=bottom;verticalAlign=top;align=center;html=1;fontSize=12;fontStyle=0;aspect=fixed;shape=mxgraph.aws4.resourceIcon;resIcon=mxgraph.aws4.cloudwatch;" vertex="1" parent="1">
          <mxGeometry x="850" y="700" width="60" height="60" as="geometry" />
        </mxCell>
        <mxCell id="JmBNsENpprbkLAOKFmlX-93" value="IAM&#xa;Roles &amp; Policies" style="sketch=0;points=[[0,0,0],[0.25,0,0],[0.5,0,0],[0.75,0,0],[1,0,0],[0,1,0],[0.25,1,0],[0.5,1,0],[0.75,1,0],[1,1,0],[0,0.25,0],[0,0.5,0],[0,0.75,0],[1,0.25,0],[1,0.5,0],[1,0.75,0]];outlineConnect=0;fontColor=#232F3E;gradientColor=#F54749;gradientDirection=north;fillColor=#C7131F;strokeColor=#ffffff;dashed=0;verticalLabelPosition=top;verticalAlign=bottom;align=center;html=1;fontSize=12;fontStyle=0;aspect=fixed;shape=mxgraph.aws4.resourceIcon;resIcon=mxgraph.aws4.identity_and_access_management;labelPosition=center;" vertex="1" parent="1">
          <mxGeometry x="622" y="720" width="60" height="60" as="geometry" />
        </mxCell>
        <mxCell id="JmBNsENpprbkLAOKFmlX-94" value="" style="edgeStyle=orthogonalEdgeStyle;rounded=0;orthogonalLoop=1;jettySize=auto;html=1;entryX=0;entryY=0.5;entryDx=0;entryDy=0;entryPerimeter=0;fontSize=10;" edge="1" parent="1" source="JmBNsENpprbkLAOKFmlX-102" target="JmBNsENpprbkLAOKFmlX-82">
          <mxGeometry x="0.0085" relative="1" as="geometry">
            <mxPoint x="110" y="902" as="sourcePoint" />
            <mxPoint as="offset" />
          </mxGeometry>
        </mxCell>
        <mxCell id="JmBNsENpprbkLAOKFmlX-95" value="" style="edgeStyle=orthogonalEdgeStyle;rounded=0;orthogonalLoop=1;jettySize=auto;html=1;exitX=1;exitY=0.5;exitDx=0;exitDy=0;exitPerimeter=0;entryX=0;entryY=0.5;entryDx=0;entryDy=0;entryPerimeter=0;" edge="1" parent="1" source="JmBNsENpprbkLAOKFmlX-82" target="JmBNsENpprbkLAOKFmlX-84">
          <mxGeometry relative="1" as="geometry" />
        </mxCell>
        <mxCell id="JmBNsENpprbkLAOKFmlX-100" value="" style="edgeStyle=orthogonalEdgeStyle;rounded=0;orthogonalLoop=1;jettySize=auto;html=1;exitX=1;exitY=0.5;exitDx=0;exitDy=0;exitPerimeter=0;entryX=0;entryY=0.5;entryDx=0;entryDy=0;entryPerimeter=0;" edge="1" parent="1" source="JmBNsENpprbkLAOKFmlX-85" target="JmBNsENpprbkLAOKFmlX-87">
          <mxGeometry relative="1" as="geometry" />
        </mxCell>
        <mxCell id="JmBNsENpprbkLAOKFmlX-102" value="User" style="sketch=0;outlineConnect=0;fontColor=#232F3E;gradientColor=none;fillColor=#232F3D;strokeColor=none;dashed=0;verticalLabelPosition=bottom;verticalAlign=top;align=center;html=1;fontSize=12;fontStyle=0;aspect=fixed;pointerEvents=1;shape=mxgraph.aws4.user;" vertex="1" parent="1">
          <mxGeometry x="40" y="874" width="60" height="60" as="geometry" />
        </mxCell>
        <mxCell id="JmBNsENpprbkLAOKFmlX-118" style="edgeStyle=orthogonalEdgeStyle;rounded=0;orthogonalLoop=1;jettySize=auto;html=1;" edge="1" parent="1" source="JmBNsENpprbkLAOKFmlX-103" target="JmBNsENpprbkLAOKFmlX-116">
          <mxGeometry relative="1" as="geometry" />
        </mxCell>
        <mxCell id="JmBNsENpprbkLAOKFmlX-103" value="Market Data" style="sketch=0;points=[[0,0,0],[0.25,0,0],[0.5,0,0],[0.75,0,0],[1,0,0],[0,1,0],[0.25,1,0],[0.5,1,0],[0.75,1,0],[1,1,0],[0,0.25,0],[0,0.5,0],[0,0.75,0],[1,0.25,0],[1,0.5,0],[1,0.75,0]];outlineConnect=0;fontColor=#232F3E;gradientColor=#F78E04;gradientDirection=north;fillColor=#D05C17;strokeColor=#ffffff;dashed=0;verticalLabelPosition=bottom;verticalAlign=top;align=center;html=1;fontSize=12;fontStyle=0;aspect=fixed;shape=mxgraph.aws4.resourceIcon;resIcon=mxgraph.aws4.lambda;" vertex="1" parent="1">
          <mxGeometry x="662" y="1200" width="60" height="60" as="geometry" />
        </mxCell>
        <mxCell id="JmBNsENpprbkLAOKFmlX-109" value="Get Transactions&amp;nbsp;&lt;div&gt;&lt;br&gt;&lt;/div&gt;" style="sketch=0;points=[[0,0,0],[0.25,0,0],[0.5,0,0],[0.75,0,0],[1,0,0],[0,1,0],[0.25,1,0],[0.5,1,0],[0.75,1,0],[1,1,0],[0,0.25,0],[0,0.5,0],[0,0.75,0],[1,0.25,0],[1,0.5,0],[1,0.75,0]];outlineConnect=0;fontColor=#232F3E;gradientColor=#F78E04;gradientDirection=north;fillColor=#D05C17;strokeColor=#ffffff;dashed=0;verticalLabelPosition=bottom;verticalAlign=top;align=center;html=1;fontSize=12;fontStyle=0;aspect=fixed;shape=mxgraph.aws4.resourceIcon;resIcon=mxgraph.aws4.lambda;" vertex="1" parent="1">
          <mxGeometry x="662" y="980" width="60" height="60" as="geometry" />
        </mxCell>
        <mxCell id="JmBNsENpprbkLAOKFmlX-110" style="edgeStyle=orthogonalEdgeStyle;rounded=0;orthogonalLoop=1;jettySize=auto;html=1;entryX=0;entryY=0.5;entryDx=0;entryDy=0;entryPerimeter=0;" edge="1" parent="1" source="JmBNsENpprbkLAOKFmlX-87" target="JmBNsENpprbkLAOKFmlX-89">
          <mxGeometry relative="1" as="geometry" />
        </mxCell>
        <mxCell id="JmBNsENpprbkLAOKFmlX-111" style="edgeStyle=orthogonalEdgeStyle;rounded=0;orthogonalLoop=1;jettySize=auto;html=1;entryX=0;entryY=0.5;entryDx=0;entryDy=0;entryPerimeter=0;" edge="1" parent="1" source="JmBNsENpprbkLAOKFmlX-109" target="JmBNsENpprbkLAOKFmlX-89">
          <mxGeometry relative="1" as="geometry" />
        </mxCell>
        <mxCell id="JmBNsENpprbkLAOKFmlX-114" style="edgeStyle=orthogonalEdgeStyle;rounded=0;orthogonalLoop=1;jettySize=auto;html=1;entryX=0;entryY=0.5;entryDx=0;entryDy=0;entryPerimeter=0;" edge="1" parent="1" source="JmBNsENpprbkLAOKFmlX-88" target="JmBNsENpprbkLAOKFmlX-90">
          <mxGeometry relative="1" as="geometry" />
        </mxCell>
        <mxCell id="JmBNsENpprbkLAOKFmlX-116" value="Alpha Vantage" style="aspect=fixed;sketch=0;html=1;dashed=0;whitespace=wrap;verticalLabelPosition=bottom;verticalAlign=top;fillColor=#2875E2;strokeColor=#ffffff;points=[[0.005,0.63,0],[0.1,0.2,0],[0.9,0.2,0],[0.5,0,0],[0.995,0.63,0],[0.72,0.99,0],[0.5,1,0],[0.28,0.99,0]];shape=mxgraph.kubernetes.icon2;kubernetesLabel=1;prIcon=api" vertex="1" parent="1">
          <mxGeometry x="860" y="1201.2" width="60" height="57.6" as="geometry" />
        </mxCell>
        <mxCell id="JmBNsENpprbkLAOKFmlX-130" style="edgeStyle=orthogonalEdgeStyle;rounded=0;orthogonalLoop=1;jettySize=auto;html=1;exitX=0.5;exitY=1;exitDx=0;exitDy=0;" edge="1" parent="1" source="JmBNsENpprbkLAOKFmlX-125" target="JmBNsENpprbkLAOKFmlX-125">
          <mxGeometry relative="1" as="geometry" />
        </mxCell>
        <mxCell id="JmBNsENpprbkLAOKFmlX-132" value="Utils Layer" style="rounded=0;whiteSpace=wrap;html=1;fillColor=#ffe6cc;strokeColor=#d79b00;" vertex="1" parent="1">
          <mxGeometry x="630" y="1310" width="124" height="50" as="geometry" />
        </mxCell>
        <mxCell id="JmBNsENpprbkLAOKFmlX-135" style="edgeStyle=orthogonalEdgeStyle;rounded=0;orthogonalLoop=1;jettySize=auto;html=1;entryX=0;entryY=0.5;entryDx=0;entryDy=0;entryPerimeter=0;" edge="1" parent="1" source="JmBNsENpprbkLAOKFmlX-85" target="JmBNsENpprbkLAOKFmlX-109">
          <mxGeometry relative="1" as="geometry" />
        </mxCell>
        <mxCell id="JmBNsENpprbkLAOKFmlX-136" style="edgeStyle=orthogonalEdgeStyle;rounded=0;orthogonalLoop=1;jettySize=auto;html=1;entryX=0;entryY=0.5;entryDx=0;entryDy=0;entryPerimeter=0;" edge="1" parent="1" source="JmBNsENpprbkLAOKFmlX-85" target="JmBNsENpprbkLAOKFmlX-88">
          <mxGeometry relative="1" as="geometry" />
        </mxCell>
        <mxCell id="JmBNsENpprbkLAOKFmlX-137" style="edgeStyle=orthogonalEdgeStyle;rounded=0;orthogonalLoop=1;jettySize=auto;html=1;entryX=0;entryY=0.5;entryDx=0;entryDy=0;entryPerimeter=0;" edge="1" parent="1" source="JmBNsENpprbkLAOKFmlX-85" target="JmBNsENpprbkLAOKFmlX-103">
          <mxGeometry relative="1" as="geometry" />
        </mxCell>
      </root>
    </mxGraphModel>
  </diagram>
</mxfile>
